Coordinates
version=1
nRows=32
nColumns=22
inDegrees=yes

Units are S.I. units (second, meters, Newtons, ...)
If the header above contains a line with 'inDegrees', this indicates whether rotational values are in degrees (yes) or radians (no).

endheader
time	pelvis_tilt	pelvis_list	pelvis_rotation	pelvis_tx	pelvis_ty	pelvis_tz	hip_flexion_r	hip_adduction_r	hip_rotation_r	knee_angle_r	ankle_angle_r	subtalar_angle_r	hip_flexion_l	hip_adduction_l	hip_rotation_l	knee_angle_l	ankle_angle_l	subtalar_angle_l	lumbar_extension	lumbar_bending	lumbar_rotation
      0.01000000	     -4.88986988	     -7.63525262	      4.77611274	     -1.10209847	      0.97715887	      0.09323972	     13.26384383	      7.29408340	     -4.78446754	    -19.88937386	      7.26963740	     -1.38469233	      6.27005964	     -5.42178573	      7.13296499	     -7.04663692	      9.33437880	     -2.86656665	      1.61892336	      5.83969850	     -7.27551782
      0.02000000	     -4.80455640	     -7.49657078	      4.74661150	     -1.10141593	      0.97710400	      0.09329863	     12.96815401	      7.16135660	     -5.22375263	    -19.75905115	      7.91922765	     -0.29348431	      6.14443922	     -5.27755413	      7.10293893	     -7.10121912	      9.35695567	     -3.13120996	      1.62135120	      5.67801111	     -7.22610738
      0.03000000	     -4.73512846	     -7.35997607	      4.70485543	     -1.10071778	      0.97704895	      0.09341401	     12.68530303	      7.03951078	     -5.61204120	    -19.61504213	      8.49031260	      0.64724808	      6.06205151	     -5.13413791	      7.05363595	     -7.20677158	      9.42507208	     -3.16564942	      1.64683853	      5.51191414	     -7.17127590
      0.04000000	     -4.66890672	     -7.26183828	      4.64952478	     -1.10002226	      0.97703302	      0.09360511	     12.40109381	      6.97199853	     -5.89384270	    -19.43206839	      8.91502388	      1.33663978	      5.99635361	     -5.03610347	      7.00102574	     -7.32993867	      9.49916022	     -3.20278406	      1.67873398	      5.38352011	     -7.11540375
      0.05000000	     -4.59825712	     -7.20990954	      4.58600178	     -1.09934334	      0.97706236	      0.09386982	     12.11818276	      6.96521361	     -6.06190821	    -19.22355089	      9.20346794	      1.79506283	      5.94492769	     -4.99213383	      6.93636138	     -7.47705014	      9.58556753	     -3.23580213	      1.70580206	      5.30135687	     -7.07369298
      0.06000000	     -4.57197266	     -7.19091675	      4.51802162	     -1.09875651	      0.97706124	      0.09417496	     11.90614540	      6.99880293	     -6.12050628	    -19.01572015	      9.35490657	      1.86553592	      5.97439193	     -4.97834756	      6.88126535	     -7.66879624	      9.68251480	     -3.26209912	      1.77682662	      5.25141969	     -7.05192334
      0.07000000	     -4.48657742	     -7.22611291	      4.43627271	     -1.09812391	      0.97716672	      0.09453719	     11.63356988	      7.09593783	     -6.11297457	    -18.78654345	      9.40778966	      2.06738307	      5.91656269	     -5.03706792	      6.80510675	     -7.81670518	      9.79957502	     -3.28997824	      1.78420897	      5.26446346	     -7.00912757
      0.08000000	     -4.42717348	     -7.25075912	      4.36546619	     -1.09754854	      0.97725402	      0.09487021	     11.40517310	      7.17667233	     -6.04355406	    -18.57265499	      9.42463023	      2.13650730	      5.89427493	     -5.07884390	      6.75090507	     -7.96972646	      9.87941577	     -3.30942215	      1.81668776	      5.26737879	     -7.02250216
      0.09000000	     -4.36468583	     -7.29252188	      4.29499413	     -1.09698963	      0.97734554	      0.09520610	     11.18890413	      7.27379452	     -5.94850353	    -18.37193242	      9.40134384	      2.14880435	      5.86293791	     -5.14031381	      6.69121442	     -8.10846368	      9.96334901	     -3.32668213	      1.84367261	      5.29138745	     -7.05535543
      0.10000000	     -4.31526879	     -7.32407019	      4.23267993	     -1.09649249	      0.97741344	      0.09552186	     11.01052026	      7.35462963	     -5.83049192	    -18.20635746	      9.37537854	      2.13370023	      5.85183794	     -5.18771107	      6.64215666	     -8.25148788	     10.03449237	     -3.34254458	      1.87650667	      5.30505685	     -7.13920899
      0.11000000	     -4.24988485	     -7.38671417	      4.15849770	     -1.09592685	      0.97750121	      0.09586186	     10.80716292	      7.46862937	     -5.73402979	    -18.02345642	      9.32141723	      2.08667791	      5.79543489	     -5.27720858	      6.56371026	     -8.35015642	     10.12627808	     -3.35770448	      1.89967984	      5.35530958	     -7.19519807
      0.12000000	     -4.20909223	     -7.41310870	      4.09819306	     -1.09544503	      0.97754543	      0.09615123	     10.65589352	      7.53517028	     -5.62858897	    -17.88628177	      9.30423176	      2.05236217	      5.77788762	     -5.31994611	      6.51415394	     -8.46599072	     10.18329430	     -3.37015087	      1.93682781	      5.36679106	     -7.30520631
      0.13000000	     -4.17404338	     -7.45200953	      4.03054376	     -1.09494014	      0.97757759	      0.09645823	     10.51147367	      7.61349998	     -5.54122653	    -17.74943543	      9.28352938	      2.01678004	      5.75151444	     -5.38044248	      6.44449205	     -8.55743410	     10.25360540	     -3.38345077	      1.98203492	      5.39135658	     -7.41871756
      0.14000000	     -4.14199137	     -7.49160125	      3.95671338	     -1.09442495	      0.97760193	      0.09676395	     10.37543898	      7.69027456	     -5.47007255	    -17.62341514	      9.26486512	      1.97926704	      5.71587926	     -5.44326329	      6.37079533	     -8.63068555	     10.32378623	     -3.39429404	      2.02994825	      5.41789662	     -7.52898397
      0.15000000	     -4.11842693	     -7.52288063	      3.87948680	     -1.09390734	      0.97761418	      0.09707295	     10.25209308	      7.75637099	     -5.40838507	    -17.50662590	      9.25816183	      1.94781734	      5.68119426	     -5.49863168	      6.29555653	     -8.69281784	     10.38571739	     -3.40249742	      2.08582747	      5.43357966	     -7.63920713
      0.16000000	     -4.09284592	     -7.55749269	      3.79118622	     -1.09335536	      0.97763290	      0.09738440	     10.12534396	      7.82652238	     -5.35002025	    -17.39246204	      9.24676669	      1.91427574	      5.62940816	     -5.55970692	      6.20753522	     -8.73675853	     10.45129942	     -3.40720029	      2.14330283	      5.45596411	     -7.73241002
      0.17000000	     -4.05933231	     -7.58860728	      3.68690557	     -1.09276368	      0.97766946	      0.09771871	      9.98695990	      7.89642968	     -5.29082660	    -17.27853873	      9.23012387	      1.87372335	      5.54580089	     -5.62208902	      6.10237101	     -8.74863470	     10.51408031	     -3.40475860	      2.19579904	      5.47360119	     -7.79913008
      0.18000000	     -4.03993796	     -7.60296327	      3.58763453	     -1.09219001	      0.97769399	      0.09803711	      9.86480940	      7.94778878	     -5.21665691	    -17.17046551	      9.24135842	      1.85030697	      5.48307118	     -5.66271589	      6.00810342	     -8.77030136	     10.55404353	     -3.40519710	      2.26363574	      5.47041311	     -7.88111011
      0.19000000	     -4.00502006	     -7.62872333	      3.46382756	     -1.09155637	      0.97774878	      0.09838787	      9.71691023	      8.01847846	     -5.11783465	    -17.05207078	      9.22992345	      1.82228828	      5.37707367	     -5.72159050	      5.87954466	     -8.75795283	     10.60505357	     -3.40346924	      2.32122803	      5.48208316	     -7.92508257
      0.20000000	     -3.96362236	     -7.64604264	      3.33863445	     -1.09090491	      0.97782116	      0.09870942	      9.56157012	      8.07880039	     -5.01535298	    -16.93769677	      9.22000273	      1.79075287	      5.25076463	     -5.76933608	      5.75474555	     -8.72616665	     10.64318771	     -3.39956827	      2.37615330	      5.48854182	     -7.95945710
      0.21000000	     -3.92535034	     -7.66455347	      3.21592761	     -1.09026607	      0.97789077	      0.09902654	      9.41038741	      8.14097051	     -4.90781807	    -16.82324017	      9.20944490	      1.75966991	      5.12558920	     -5.81689701	      5.63303849	     -8.68799636	     10.67900693	     -3.39816208	      2.43459008	      5.49309195	     -7.99564418
      0.22000000	     -3.88830022	     -7.68469132	      3.09716795	     -1.08963936	      0.97796031	      0.09932245	      9.26265265	      8.20303936	     -4.79700656	    -16.71159692	      9.19519384	      1.72828482	      5.00138553	     -5.86403189	      5.51561708	     -8.64715221	     10.71259830	     -3.39873159	      2.49502980	      5.50173293	     -8.03299610
      0.23000000	     -3.85710395	     -7.70663202	      2.98724891	     -1.08903902	      0.97802110	      0.09959578	      9.12447007	      8.26455560	     -4.68579010	    -16.60265228	      9.18238123	      1.69911008	      4.88875305	     -5.91000795	      5.40737737	     -8.61021101	     10.74401662	     -3.40130612	      2.55936223	      5.51049135	     -8.08119087
      0.24000000	     -3.82891243	     -7.73064736	      2.88483268	     -1.08845896	      0.97807659	      0.09985228	      8.99282397	      8.32623586	     -4.57624483	    -16.49706531	      9.16843088	      1.67237504	      4.78416541	     -5.95634139	      5.30291268	     -8.57667970	     10.77574912	     -3.40548862	      2.62433801	      5.52111460	     -8.13573315
      0.25000000	     -3.80235142	     -7.75588183	      2.78953817	     -1.08789933	      0.97812868	      0.10010485	      8.86572668	      8.38803817	     -4.46832257	    -16.39384246	      9.15579178	      1.64843886	      4.68828568	     -6.00356786	      5.20270879	     -8.55048473	     10.80753385	     -3.41079207	      2.68663650	      5.53065099	     -8.19511687
      0.26000000	     -3.75446333	     -7.78288144	      2.69076700	     -1.08732246	      0.97820814	      0.10033701	      8.72381186	      8.44859010	     -4.37577396	    -16.30561415	      9.12707516	      1.61597663	      4.55954015	     -6.05328505	      5.08942706	     -8.50978575	     10.84699240	     -3.41571013	      2.72327034	      5.54814935	     -8.23574360
      0.27000000	     -3.75989899	     -7.78641531	      2.63094443	     -1.08682033	      0.97820857	      0.10050469	      8.65966591	      8.47011715	     -4.33695343	    -16.24813749	      9.14472188	      1.61060717	      4.51962523	     -6.06746986	      5.03352024	     -8.50588386	     10.86857663	     -3.42063633	      2.81377298	      5.53444835	     -8.33137981
      0.28000000	     -3.72214156	     -7.82885816	      2.54440401	     -1.08632814	      0.97827243	      0.10074357	      8.52501986	      8.55068630	     -4.20002390	    -16.14304196	      9.12640173	      1.59801826	      4.44877475	     -6.13177658	      4.93631815	     -8.53525690	     10.91204474	     -3.42927022	      2.84534586	      5.56545697	     -8.36830788
      0.29000000	     -3.68614434	     -7.84964157	      2.46885891	     -1.08584540	      0.97832829	      0.10094476	      8.41581959	      8.59805023	     -4.12790177	    -16.07838346	      9.12516583	      1.58605848	      4.37124117	     -6.17017618	      4.84678721	     -8.54547495	     10.94941444	     -3.43406284	      2.87545041	      5.57451280	     -8.41908233
      0.30000000	     -3.65598331	     -7.86641707	      2.39822495	     -1.08540536	      0.97837193	      0.10112777	      8.32898535	      8.63644247	     -4.07076046	    -16.03702469	      9.12736059	      1.57871664	      4.30859076	     -6.20255477	      4.77127012	     -8.56552242	     10.98610614	     -3.43765026	      2.90424370	      5.58068530	     -8.46375050
      0.31000000	     -3.64655487	     -7.87082370	      2.34115915	     -1.08501280	      0.97838479	      0.10127896	      8.29011033	      8.65395194	     -4.04971946	    -16.03486154	      9.13502133	      1.57693875	      4.27007352	     -6.21745677	      4.72504500	     -8.58007334	     11.00962650	     -3.44097516	      2.95073571	      5.57334871	     -8.52577489
      0.32000000	     -3.61431207	     -7.88884664	      2.26375167	     -1.08465234	      0.97841858	      0.10145696	      8.22096622	      8.69247464	     -3.98563797	    -16.01904979	      9.15232717	      1.57456249	      4.22781253	     -6.24968413	      4.63529276	     -8.63473383	     11.06085953	     -3.44537890	      2.96120743	      5.58543907	     -8.53229116
